<svg version="1.1" id="Layer_1" xmlns="http://www.w3.org/2000/svg" xmlns:xlink="http://www.w3.org/1999/xlink" x="0" y="0" width="1920" height="390" viewBox="0 0 1920 390" xml:space="preserve"><style>.st1{fill:#9ea5cc}.st2{fill:#b170db}.st3{fill:#fff}.st4{fill:none;stroke:#ff8269;stroke-width:3;stroke-miterlimit:10}.st6{fill:#ff8269}.st8{fill:#ff6654}.st9{fill:#ff9d8a}.st10{fill:#fcd9b8}.st11{fill:#c08cde}.st40{fill:#f28fdd}.st41{fill:#4493ff}.st42{fill:#cceaff}.st44{fill:#d79cf7}.st45{fill:#e0baf5}.st57{fill:#e36dca}.st58{fill:#ff2e4c}.st66{fill:none;stroke:#cceaff;stroke-width:2;stroke-miterlimit:10}.st68{fill:#6f7696}.st69{fill:none;stroke:#e6e6e6;stroke-width:2;stroke-miterlimit:10}.st70{fill:#e6e6e6}.st71{fill:none;stroke:#fff;stroke-width:2;stroke-miterlimit:10}.st102{fill:#132745}.st103{fill:#ff8e78}.st105{fill:#703a3a}</style><g id="illustration"><path fill="#8288a8" d="M1036 39l3-3h5l2 7-5 4-6-2z"/><path class="st1" d="M1027 58l4-7-2-7 1-7 7-3 3 6-3 4 4-1 4 3 2 7-6 12h-6l-3 1-10 2-6-2z"/><path class="st2" d="M584 251l20-30v-35l11-3 5 15 10-8 11 6 4 34 5 56-52-28z"/><path class="st3" d="M1663 276l-14-7-18 3-12 14 7 10 36-9z"/><path class="st4" d="M850.5 254.5l6 3 12-2M898 221l-5-11 3-10-1-6M923.5 214.5l-1-10 6.5-7.3 3.3-7.9M868.5 250.5l-9-7v-14"/><path fill="none" stroke="#ff6654" stroke-width="3" stroke-miterlimit="10" d="M946.5 204.5l-7 10"/><path id="SVGID_1_" class="st6" d="M1103.3 124l-2.3-15 17.8-9.4 20.1 16.4 8.5 33.2-8.3 41-23.7 23.5-39.3 34.9-15.8-50.9 21.1-12.3L1100 172l6.3-19.4z"/><defs><path id="SVGID_2_" d="M1103.3 124l-2.3-15 17.8-9.4 20.1 16.4 8.5 33.2-8.3 41-23.7 23.5-39.3 34.9-15.8-50.9 21.1-12.3L1100 172l6.3-19.4z"/></defs><clipPath id="SVGID_4_"><use xlink:href="#SVGID_2_" overflow="visible"/></clipPath><g clip-path="url(#SVGID_4_)"><path class="st8" d="M1101.3 207l6.4 2.1.4 7.2-3.7 3-6.9-2.3-.4-5.8zM1109.9 198l-4.2.1-1.7 5 5.9 3.4 3-4.7zM1119.9 214.6l-6.3-2.1-3 18.8 9.7.4zM1091.5 216.6l1.7 3.4-2.6 3.3-2.5-.8-.4-3zM1102.4 233.3l-5.7-10.9-2.1 16.2 5.1 5.7 5.1-3.3zM1139.7 129.3l-3.4 4.6 4.6 4.8 4.1-2.8v-6zM1089 237.7l-3.9-10.2-3.9 12.6 1.2 5.4 5.4 1.8 2.7-5.1zM1138 121.7l-3.5-1.5-4.6 1.2-.6 5.5 4.5 3.4 4.2-3.9zM1085.4 251.4l-3.5-1.1-2.7 5 2.1 5.7 6.5-1.8 3.6-7.8zM1078 247l-2.4 4.2-4.7-.6-.6-4.2 3.2-3.9zM1128.5 207.1l-3.9-6.2.9-5.6 5.1-.4 5.9 6z"/><path class="st8" d="M1112.3 212.4l4.7-9.6 4.8-1.2 4.8 7.2-9.6 8.4zM1138.3 195.5l-4.2-5.3.9-5.7 8.6-5 4.8 3.5-1.8 11.3zM1128.2 190.3l-4.7.7-3-4.4 3.4-5.8 6.3 3.3zM1120.4 192.6l-2.3-1.8-3 3 .9 3.3 4.5-1.5zM1149.5 174.1l-5.3 4.1-5.4-1.7.3-3.9 4.4-4.5 7.2 2.4zM1138.6 168l-2.8 5.2-3.7-2.4-2.5-5.7 4.5-3.4 4.9 1.6zM1148.1 160.1l-5.1.3-1.2 3.6 2.7.8 5.7-2zM1146.9 154.7l-3.9-.3-3.8 2.7-1.2-5.3 1.4-4.5 3.3-3.9 5.4 1.8zM1135.8 156.4l-4.4 2.3-2.6-3.4.2-6.3 4.6 2.8zM1139.4 141.4l-3.2 6.4-4.8-2.4 2.1-4zM1132.3 132.1l1.4 4.8-4 3-3.7-2.6.8-7zM1097.9 155v-3.6h3.6l1.2 2.9zM1128.3 171.7l5.5 2.4 1.2 5.6-4.1 1.6-5.3-3.2-1.4-4.8zM1101.6 102.3l-1 1.8 1.9 1.9 1.9-1.9-.9-1.8z"/></g><path class="st9" d="M1118.1 120.2l-14.8 3.8 2.7 25-6 23-20.4 12.5-54.6 15.9 58.7 3.5 18.2-12.7 16.4-16.8 6.1-25z"/><path class="st9" d="M1084.6 177l-.1 5.7 5.4.4 8.3-5.1 2.1-3.9-7-2.9z"/><path class="st10" d="M1085.7 173.3l3.9-2.8 3.7.7-2.6 4.1-6.1 1.7z"/><path class="st9" d="M1083.5 186.1l-4.2-5.1-11.4 3-1.1 5.7 10.4.6z"/><path class="st10" d="M1067.9 184l2.5-3.9 4.8-1.2 4.1 2.1-6.4 3.1z"/><path class="st9" d="M1099.4 166.8l1.5 3.9 6.6-4.9-.8-5.3-1.5-3.1-2.7 2z"/><path class="st10" d="M1102.5 159.4l-3.1 1.5-.8 2.4.8 3.5 4-4.1z"/><path class="st11" d="M207.5 299l71.5-64 49-30 8-10 32-3 20 7h17l2 6 73.3 36.6L497 264l-20 90z"/><path id="SVGID_3_" class="st6" d="M372 281.5l-39.3-3.5-23.7-13.5.7-13.8 7.3-7.7-5.7-2.7-10.4 7.2L295 269l14 22.5 43.5 23.5z"/><defs><path id="SVGID_6_" d="M372 281.5l-39.3-3.5-23.7-13.5.7-13.8 7.3-7.7-5.7-2.7-10.4 7.2L295 269l14 22.5 43.5 23.5z"/></defs><clipPath id="SVGID_8_"><use xlink:href="#SVGID_6_" overflow="visible"/></clipPath><path clip-path="url(#SVGID_8_)" fill="#ff6654" d="M313 265.7l-4 6 6.7 8 8-2.4v-10z"/><defs><path id="SVGID_10_" d="M372 281.5l-39.3-3.5-23.7-13.5.7-13.8 7.3-7.7-5.7-2.7-10.4 7.2L295 269l14 22.5 43.5 23.5z"/></defs><clipPath id="SVGID_12_"><use xlink:href="#SVGID_10_" overflow="visible"/></clipPath><path clip-path="url(#SVGID_12_)" fill="#ff6654" d="M328.3 273.3l-.6 8 7.3 3 2.3-4-1-6z"/><defs><path id="SVGID_14_" d="M372 281.5l-39.3-3.5-23.7-13.5.7-13.8 7.3-7.7-5.7-2.7-10.4 7.2L295 269l14 22.5 43.5 23.5z"/></defs><clipPath id="SVGID_16_"><use xlink:href="#SVGID_14_" overflow="visible"/></clipPath><path clip-path="url(#SVGID_16_)" fill="#ff6654" d="M321.3 288.7l3-3.7 4.7 1.3 2 4.4-4.7 1.6z"/><defs><path id="SVGID_18_" d="M372 281.5l-39.3-3.5-23.7-13.5.7-13.8 7.3-7.7-5.7-2.7-10.4 7.2L295 269l14 22.5 43.5 23.5z"/></defs><clipPath id="SVGID_20_"><use xlink:href="#SVGID_18_" overflow="visible"/></clipPath><path clip-path="url(#SVGID_20_)" fill="#ff6654" d="M337.3 291.7l2-6.4 5-.6 2 5.3-2.6 3z"/><defs><path id="SVGID_22_" d="M372 281.5l-39.3-3.5-23.7-13.5.7-13.8 7.3-7.7-5.7-2.7-10.4 7.2L295 269l14 22.5 43.5 23.5z"/></defs><clipPath id="SVGID_23_"><use xlink:href="#SVGID_22_" overflow="visible"/></clipPath><path clip-path="url(#SVGID_23_)" fill="#ff6654" d="M348.7 276.7L347 282l4.7 3.7 4-1.4 1.3-6z"/><defs><path id="SVGID_24_" d="M372 281.5l-39.3-3.5-23.7-13.5.7-13.8 7.3-7.7-5.7-2.7-10.4 7.2L295 269l14 22.5 43.5 23.5z"/></defs><clipPath id="SVGID_25_"><use xlink:href="#SVGID_24_" overflow="visible"/></clipPath><path clip-path="url(#SVGID_25_)" fill="#ff6654" d="M348.7 300l2-10.7 9-2 4.6 5.4-4.6 5.6z"/><defs><path id="SVGID_26_" d="M372 281.5l-39.3-3.5-23.7-13.5.7-13.8 7.3-7.7-5.7-2.7-10.4 7.2L295 269l14 22.5 43.5 23.5z"/></defs><clipPath id="SVGID_27_"><use xlink:href="#SVGID_26_" overflow="visible"/></clipPath><path clip-path="url(#SVGID_27_)" fill="#ff6654" d="M302.7 264.7l.6-5 6.4-4.7.3 9.3-4.7 2.7z"/><defs><path id="SVGID_28_" d="M372 281.5l-39.3-3.5-23.7-13.5.7-13.8 7.3-7.7-5.7-2.7-10.4 7.2L295 269l14 22.5 43.5 23.5z"/></defs><clipPath id="SVGID_29_"><use xlink:href="#SVGID_28_" overflow="visible"/></clipPath><path clip-path="url(#SVGID_29_)" fill="#ff6654" d="M308 241.7l-2 6.6 8 3.4 6.7-6-6.4-7.4z"/><defs><path id="SVGID_30_" d="M372 281.5l-39.3-3.5-23.7-13.5.7-13.8 7.3-7.7-5.7-2.7-10.4 7.2L295 269l14 22.5 43.5 23.5z"/></defs><clipPath id="SVGID_31_"><use xlink:href="#SVGID_30_" overflow="visible"/></clipPath><path clip-path="url(#SVGID_31_)" fill="#ff6654" d="M298.3 247l5.7 7.3-4 5-6-1.6z"/><defs><path id="SVGID_32_" d="M372 281.5l-39.3-3.5-23.7-13.5.7-13.8 7.3-7.7-5.7-2.7-10.4 7.2L295 269l14 22.5 43.5 23.5z"/></defs><clipPath id="SVGID_33_"><use xlink:href="#SVGID_32_" overflow="visible"/></clipPath><path clip-path="url(#SVGID_33_)" fill="#ff6654" d="M295.3 263.3l3.7 2.4-1 3.6-4.3-2.3z"/><path class="st9" d="M295 269l7.5 22.5 22 20.5 21.5-2 5.5-7-36-9.5z"/><path class="st2" d="M497 253l-16.7-11.4L467 247l-22 36 18 8z"/><path id="SVGID_5_" class="st6" d="M1245.8 302.5l-5.2-22.7 2.1-10.4 7.9-5.5 14.5-13.2 1.7-7.8-6.7-11.7-12.2-9.8-3-9.8-3.5-2.8-.9 3.9 1.3 14.1 9.5 11.7.7 6.3-3.7 3.3-12.8 2.4-13.6 6.2-11.2 23.5-1 28.1"/><defs><path id="SVGID_34_" d="M1245.8 302.5l-5.2-22.7 2.1-10.4 7.9-5.5 14.5-13.2 1.7-7.8-6.7-11.7-12.2-9.8-3-9.8-3.5-2.8-.9 3.9 1.3 14.1 9.5 11.7.7 6.3-3.7 3.3-12.8 2.4-13.6 6.2-11.2 23.5-1 28.1"/></defs><clipPath id="SVGID_35_"><use xlink:href="#SVGID_34_" overflow="visible"/></clipPath><g clip-path="url(#SVGID_35_)"><path class="st8" d="M1249.6 298.2l-2.9 2.8-5 .4-2.6-5.2 3.2-5.1 5.6 2.4zM1256.2 228.8l-.5 7.2 4 4.5 10.6-.5 2.2-5.9-8.2-9.1zM1272.1 247.7l-6.9-2.1-4.7 3.7 1.8 3.8 6.1 2.8 6.2-5z"/><path class="st6" d="M1255.1 262.3l-3.9-3.3-2.5 3.2-.6 5.7 4.9 1.2 3.9-3.1z"/><path class="st8" d="M1245.1 265.6l-4 1.2-1.9-2.4 1.8-1.4h4.9zM1240.6 269h-4.6l-1.4 6.2 4.5 3.7 4.9.8 5.2-1.2 1-5.9zM1243 285.5l-.3-3.6-3.5-1.1-1.7 2.7 2.4 4.5zM1245.9 212.2l.1 2.8-3.6.8-5.4-6 6.1-1.8zM1253.5 228.8l1.2-5.9-7.7 2.4 1.6 2.4 3.5 2.8zM1240 219.7l4 .9 1.3 3.3-1.6 2.8-1.8 3.7-3.5-2.8zM1243.6 231.7l3.4-1.3 3.4 2.8-2.2 5.7-4.9-1.1zM1234.3 278.6l.7 3.4-3.4 3.4-3.6-2.4 1.6-5.4 2.6-.7zM1235.1 286.7l2 3.7-3.8 4.6-6.3-3.5 1-4.5 4 1.2zM1237.6 302.4l-4.1-6-5.2-1.1-2.1 3.3 1.6 5.4z"/></g><path class="st9" d="M1224.1 308.4l-2.6-26.2 5.9-13 11.3-9.9 12-3.5 6-9-1.7-6.5-3.7-1.8.7 6.3-3.7 3.3-12.6 2.3-13.8 6.3-11.2 23.5-.8 32.3z"/><path class="st10" d="M1208 300v-5l3-2 2 4-1 3z"/><path class="st9" d="M1831 216l-7 11 6 13-18 12-3-9 5-13-7-12 7-8 15-4z"/><path class="st11" d="M1590 317l82.7-52.2 11.5-9.7 5.5-9.4h33.1l2.1 8.5 10.5 6.7 6.6 2.9 39.4-35.2 4.3-8.5 7.4-3.2 2.2-13.9 53.3 1.1 2.1 9.6 10.7 7.4L1920 240v150h-364.6z"/><path class="st3" d="M1920 254l-31 2-9 8-21 3-8 9-12 3-10 10 29 1 7-5 24 5 31-5z"/><path id="SVGID_7_" class="st6" d="M989 260.5v-18.9l-10-8.8-38-21.8-27-1-29.8 12.6-19.3 25.3L858 281l-2 50 35.9 6.3 21.1 8.4 25 5.3 48.1-31.6z"/><defs><path id="SVGID_36_" d="M989 260.5v-18.9l-10-8.8-38-21.8-27-1-29.8 12.6-19.3 25.3L858 281l-2 50 35.9 6.3 21.1 8.4 25 5.3 48.1-31.6z"/></defs><clipPath id="SVGID_37_"><use xlink:href="#SVGID_36_" overflow="visible"/></clipPath><g clip-path="url(#SVGID_37_)"><path class="st8" d="M875.3 228.7l9.8 6.6 10.6-8.5-12.8-17.5-9.4 4.4zM862.7 234.8l-.7 7.2 3 4 10.6 1.3 3.2-9.9-8.5-5.2zM875.8 258.3l-3.4 13.9-9.7 3.3-14.3-7.2 11.4-10.3zM854 282l12-1 5 8-6 6h-10zM886.6 253.4l4.8-1.6 7.9 7.1-9.7 6.8-6.3-3.6zM876.8 277.5l-1.7 7 8 1.9 4.9-7-3.2-5.3zM874.9 299.9l1.6 3.5 3.2 1.8 4.8-3.5-3.2-8.8-3.2 1.8zM897.3 230l-1.6 7 4.8 7h11.1l3.2-10.5-3.2-7zM894.1 270.2l6.4-1.7 1.6 5.2-1.6 3.5-4.8 1.8-4.8-5.3zM924.4 223l-3.2 7 3.2 5.3h9.6l3.2-7-4.8-7zM887.4 290.8l5.4-6.1h10.6l1.9 13.7-8.6 5.2-7.7-4z"/></g><defs><path id="SVGID_38_" d="M989 260.5v-18.9l-10-8.8-38-21.8-27-1-29.8 12.6-19.3 25.3L858 281l-2 50 35.9 6.3 21.1 8.4 25 5.3 48.1-31.6z"/></defs><clipPath id="SVGID_39_"><use xlink:href="#SVGID_38_" overflow="visible"/></clipPath><path clip-path="url(#SVGID_39_)" fill="#ff6654" d="M883.2 248.9l1-7.3 5.7-1.1 3.9 5.3-4.8 3.1z"/><defs><path id="SVGID_40_" d="M989 260.5v-18.9l-10-8.8-38-21.8-27-1-29.8 12.6-19.3 25.3L858 281l-2 50 35.9 6.3 21.1 8.4 25 5.3 48.1-31.6z"/></defs><clipPath id="SVGID_41_"><use xlink:href="#SVGID_40_" overflow="visible"/></clipPath><path clip-path="url(#SVGID_41_)" fill="#ff6654" d="M897.6 213.2l5.8 9.4 11.5-3.1 8.7-14.8-9.6-2.1z"/><defs><path id="SVGID_42_" d="M989 260.5v-18.9l-10-8.8-38-21.8-27-1-29.8 12.6-19.3 25.3L858 281l-2 50 35.9 6.3 21.1 8.4 25 5.3 48.1-31.6z"/></defs><clipPath id="SVGID_43_"><use xlink:href="#SVGID_42_" overflow="visible"/></clipPath><path clip-path="url(#SVGID_43_)" fill="#ff6654" d="M928.4 206.8v9.5l13.5 4.2 10.6-9.4z"/><defs><path id="SVGID_44_" d="M989 260.5v-18.9l-10-8.8-38-21.8-27-1-29.8 12.6-19.3 25.3L858 281l-2 50 35.9 6.3 21.1 8.4 25 5.3 48.1-31.6z"/></defs><clipPath id="SVGID_45_"><use xlink:href="#SVGID_44_" overflow="visible"/></clipPath><path clip-path="url(#SVGID_45_)" fill="#ff6654" d="M946.7 233.1l3.8-10.5 11.6 2.1 2.9 5.3-6.8 7.4z"/><defs><path id="SVGID_46_" d="M989 260.5v-18.9l-10-8.8-38-21.8-27-1-29.8 12.6-19.3 25.3L858 281l-2 50 35.9 6.3 21.1 8.4 25 5.3 48.1-31.6z"/></defs><clipPath id="SVGID_47_"><use xlink:href="#SVGID_46_" overflow="visible"/></clipPath><path clip-path="url(#SVGID_47_)" fill="#ff6654" d="M868.8 312.1l6.7-2.1 5.8 7.3-2.9 12.7z"/><defs><path id="SVGID_48_" d="M989 260.5v-18.9l-10-8.8-38-21.8-27-1-29.8 12.6-19.3 25.3L858 281l-2 50 35.9 6.3 21.1 8.4 25 5.3 48.1-31.6z"/></defs><clipPath id="SVGID_49_"><use xlink:href="#SVGID_48_" overflow="visible"/></clipPath><path clip-path="url(#SVGID_49_)" fill="#ff6654" d="M938 241.6l2.9-5.3 7.7 1.1 3.9 5.2-7.7 3.2z"/><defs><path id="SVGID_50_" d="M989 260.5v-18.9l-10-8.8-38-21.8-27-1-29.8 12.6-19.3 25.3L858 281l-2 50 35.9 6.3 21.1 8.4 25 5.3 48.1-31.6z"/></defs><clipPath id="SVGID_51_"><use xlink:href="#SVGID_50_" overflow="visible"/></clipPath><path clip-path="url(#SVGID_51_)" fill="#ff6654" d="M916.9 246.8l1.9-6.3 10.6-1 3.8 5.2-7.7 3.2z"/><defs><path id="SVGID_52_" d="M989 260.5v-18.9l-10-8.8-38-21.8-27-1-29.8 12.6-19.3 25.3L858 281l-2 50 35.9 6.3 21.1 8.4 25 5.3 48.1-31.6z"/></defs><clipPath id="SVGID_53_"><use xlink:href="#SVGID_52_" overflow="visible"/></clipPath><path clip-path="url(#SVGID_53_)" fill="#ff6654" d="M904.4 255.2l4.8-5.2 7.7 2.1-2 6.3h-5.7z"/><path class="st9" d="M1281 268.1l-3.6 2.2-6.8 32.6 34 3.9-9.6-36.8z"/><path class="st6" d="M1288.8 270.5l-7.8-2.4 19-11.1z"/><path class="st11" d="M762.7 313.3l-32-49.3-29.7-23-3-6h-26l-3 4.8-36 13.2-63-38-8-10-41 1-2 7-21 24-24 14-20 25 35 49 210 20z"/><path id="SVGID_9_" class="st6" d="M645.7 294l-14-23.3L605 262l-38.4 13-20.3 19.7z"/><defs><path id="SVGID_54_" d="M645.7 294l-14-23.3L605 262l-38.4 13-20.3 19.7z"/></defs><clipPath id="SVGID_55_"><use xlink:href="#SVGID_54_" overflow="visible"/></clipPath><path clip-path="url(#SVGID_55_)" fill="#ff6654" d="M572.7 268.7l-.7 7.6 8 2 7.7-3.6-5.7-10.4z"/><defs><path id="SVGID_56_" d="M645.7 294l-14-23.3L605 262l-38.4 13-20.3 19.7z"/></defs><clipPath id="SVGID_57_"><use xlink:href="#SVGID_56_" overflow="visible"/></clipPath><path clip-path="url(#SVGID_57_)" fill="#ff6654" d="M592 277.7l.7-6.4 6-3.3 7.3 5-3 4.7z"/><defs><path id="SVGID_58_" d="M645.7 294l-14-23.3L605 262l-38.4 13-20.3 19.7z"/></defs><clipPath id="SVGID_59_"><use xlink:href="#SVGID_58_" overflow="visible"/></clipPath><path clip-path="url(#SVGID_59_)" fill="#ff6654" d="M601.3 260.3l1.4 5.7 9 3.3 4-5-4.7-5.3z"/><defs><path id="SVGID_60_" d="M645.7 294l-14-23.3L605 262l-38.4 13-20.3 19.7z"/></defs><clipPath id="SVGID_61_"><use xlink:href="#SVGID_60_" overflow="visible"/></clipPath><path clip-path="url(#SVGID_61_)" fill="#ff6654" d="M609 283.3l2.7-8.3 5-1.3 5 4.6-1 6.7z"/><defs><path id="SVGID_62_" d="M645.7 294l-14-23.3L605 262l-38.4 13-20.3 19.7z"/></defs><clipPath id="SVGID_63_"><use xlink:href="#SVGID_62_" overflow="visible"/></clipPath><path clip-path="url(#SVGID_63_)" fill="#ff6654" d="M621.3 265l-1.3 5 3.7 4 5.3-.3 3.7-4.4z"/><defs><path id="SVGID_64_" d="M645.7 294l-14-23.3L605 262l-38.4 13-20.3 19.7z"/></defs><clipPath id="SVGID_65_"><use xlink:href="#SVGID_64_" overflow="visible"/></clipPath><path clip-path="url(#SVGID_65_)" fill="#ff6654" d="M636.7 274l-6.7 4.7 3.3 11 7.4-.4 3.6-8.6z"/><defs><path id="SVGID_66_" d="M645.7 294l-14-23.3L605 262l-38.4 13-20.3 19.7z"/></defs><clipPath id="SVGID_67_"><use xlink:href="#SVGID_66_" overflow="visible"/></clipPath><path clip-path="url(#SVGID_67_)" fill="#ff6654" d="M583 288l1.3-6.7 5.4-1.3 6 4.7-4 4.3z"/><defs><path id="SVGID_68_" d="M645.7 294l-14-23.3L605 262l-38.4 13-20.3 19.7z"/></defs><clipPath id="SVGID_69_"><use xlink:href="#SVGID_68_" overflow="visible"/></clipPath><path clip-path="url(#SVGID_69_)" fill="#ff6654" d="M572 283l7 1-1.3 5.7-7.7-.7z"/><path class="st40" d="M524 286.7l2-27.7 3.7-2 3.6 5.7 3.7 28-10.3-1z"/><path class="st11" d="M1103 314l7-5 2.5 9.1z"/><path class="st41" d="M1005.6 23l1.6 2.4 1.6-2.4-1.6-2.4z"/><path class="st42" d="M944.6 116l1.6 2.4 1.6-2.4-1.6-2.4z"/><path class="st41" d="M1013.6 141l1.6 2.4 1.6-2.4-1.6-2.4zM878.8 110l2.3 2.8 2.3-2.8-2.3-2.8zM733.4 46.7l2.3 2.8 2.3-2.8-2.3-2.9zM815.8 169l2.3 2.8 2.3-2.8-2.3-2.8z"/><path class="st42" d="M881 43l2.8 4.3 2.8-4.3-2.8-4.3z"/><path class="st41" d="M1315.6 95l1.6 2.4 1.6-2.4-1.6-2.4zM1361.6 159l1.6 2.4 1.6-2.4-1.6-2.4zM1223.8 89l2.3 2.8 2.3-2.8-2.3-2.8zM864.8 64l2.3 2.8 2.3-2.8-2.3-2.8z"/><path class="st42" d="M1353.8 110l2.3 2.8 2.3-2.8-2.3-2.8z"/><path class="st41" d="M1197.8 177l2.3 2.8 2.3-2.8-2.3-2.8z"/><path class="st42" d="M1291 72l2.8 4.3 2.8-4.3-2.8-4.3zM1032 222l2.8 14.3 2.8-14.3-2.8-4.3z"/><path class="st41" d="M1727.6 65l1.6 2.4 1.6-2.4-1.6-2.4zM1795.6 145l1.6 2.4 1.6-2.4-1.6-2.4zM1883.6 86l1.6 2.4 1.6-2.4-1.6-2.4zM1535.6 108l1.6 2.4 1.6-2.4-1.6-2.4zM1512.6 18l1.6 2.4 1.6-2.4-1.6-2.4z"/><path class="st42" d="M1278.8 173l2.3 2.8 2.3-2.8-2.3-2.8zM1483.8 95l2.3 2.8 2.3-2.8-2.3-2.8zM1706.8 39l2.3 2.8 2.3-2.8-2.3-2.8zM1606.4 173l2.3 2.8 2.3-2.8-2.3-2.8zM1892 104l2.8 4.3 2.8-4.3-2.8-4.3zM1600 144.6l2.3 4.6 3.3-3.8-2.3-4.6zM811 140l2.8 4.3 2.8-4.3-2.8-4.3z"/><path class="st41" d="M556.3 93l-1.6 2.4-1.6-2.4 1.6-2.4zM47 266l-1.6 2.4-1.6-2.4 1.6-2.4zM49.9 85.7l-1.6 2.4-1.6-2.4 1.6-2.4zM308 137l-1.6 2.4-1.6-2.4 1.6-2.4zM240.6 46.3l-1.6 2.4-1.6-2.4 1.6-2.4zM487.7 167.7l-1.6 2.4-1.6-2.4 1.6-2.4zM455.6 39l-1.6 2.4-1.6-2.4 1.6-2.4z"/><path class="st42" d="M779.8 29l-2.3 2.8-2.3-2.8 2.3-2.8zM278.6 67l-2.3 2.8L274 67l2.3-2.8zM201.8 178l-2.3 2.8-2.3-2.8 2.3-2.8zM694.3 181.7l-2.8 4.2-2.9-4.2 2.9-4.3zM550.5 69.3l-2.8 4.3-2.9-4.3 2.9-4.2zM450 108.7l-2.9 4.2-2.8-4.2 2.8-4.3z"/><path class="st41" d="M150 24l-1.6 2.4-1.6-2.4 1.6-2.4zM1655.2 141l-1.6 2.4-1.6-2.4 1.6-2.4zM729 206l-1.6 2.4-1.6-2.4 1.6-2.4z"/><path class="st42" d="M252.6 91l-2.8 4.3L247 91l2.8-4.3zM31.8 245l-2.8 4.3-2.8-4.3 2.8-4.3z"/><path class="st3" d="M783.5 148l2.9 9.5 7 2.9-7 3-2.9 9.4-3-9.4-7-3 7-2.9zM1210.5 36l2.9 9.5 7 2.9-7 3-2.9 9.4-3-9.4-7-3 7-2.9zM346.5 6l2.9 9.5 7 2.9-7 3-2.9 9.4-3-9.4-7-3 7-2.9zM1640.5 42l2.9 9.5 7 2.9-7 3-2.9 9.4-3-9.4-7-3 7-2.9zM1720.3 110l3.6 11.6 8.6 3.6-8.6 3.6-3.6 11.7-3.5-11.7-8.6-3.6 8.6-3.6z"/><path class="st11" d="M1313.8 321.1l1.5-15.6 5.7-7.1v-7.1l7.1 4.3v12.7z"/><path fill="#ffb3ce" d="M1204 342l4 4v4l-10 1-2-2z"/><g><path class="st11" d="M63 324l16 7 29-4 14-12-23 6-30.5-6.2zM272 268l-3 9-10 4-9 3 17 2 8-3 3-3z"/></g><path class="st44" d="M411.7 369.4h-24.9l5-3.3 3.2 1.3s4.9-3.3 5.5-3.3 14.1 1.3 14.1 1.3l-2.9 4z"/><g><path class="st45" d="M1824 302l-22 2-35 26-52-5-33 12-60-24-26-5-17.4 5.1-6.3 5.4-9.3-7.5-11.5-12-42.5-10-16 8-23-15-22-1-26 21-13 10-9.6 2.9-16.4 7.1-7-12-32.7-8H1291l-39-9-18 7-32-1.3-30 4.3-3.9-11.7-6.7-21-10.4-9.3-1-16-50-41-5-7-8-7-26-4-11 5h-53l-10-4-5 4-13.7.3L956 205l-5 10v14l-29 21-4.2 9.4-9.7 8.8-1.1 9.8-16 8-.5 8.5L860 286l-21.3 10.2-9.5-3.2-12 2.4-41.7 10.8-21.3-1.8L732 312l-49-8-16-10-58-13-28 6-82.7 1.5-3.3-7.5-12.5-8-12.5 1-2.5-8.5-15-1-4.6 2L436 259l-52 2.5-30 34.5-60.5 15-15-17.5-37-9-74.5.5-12 13-23 1-32 14-31 2-6 9-39-3-24 10v59h1920v-74z"/><path class="st44" d="M1578.6 313.1l4.4 10.9-5 13-1.5-12.5-6.5-6zM1002 191l8 4 28.3-.3 6.7-3.7zM1095 197l-5 8-20 10 24-2 6-9zM951 215l18 14 16 5-17 2-17-7zM907 278l9.6 4 13.4-3-13.4-4-8.5-6.8z"/></g><path class="st44" d="M1303 351l19-5 24 5-20-14-21 2z"/><path class="st11" d="M633 253l20 8-12-11z"/><path class="st3" d="M723.6 249.2l-1.4-3.5-4.2-2.2-9.5-.5-6.3 6.3-2 4-8.9-3.6-13.3 4.1-22.5-3.2 10.9 12.8 6.6 1.5 5-1.6 6 4.2 22.6.5 7.5-8.8-.2-5.3 4.6.7zM666 241l-6-5-12 1-6-1-7 8 5 8 7 1 2-6zM567 211l9-4 5 7 11 3-6 13-16-1-6-8 10-2-4-4zM557 226.5l-4.2 6.3-13.7-3.1-12.6 5.2-9.5-5.2-9.4 4.2-11.6-5.3 2.1-10.5 7.4-2.1 8.4 3.2 18.9-2.1 5.3 5.2 4.2-2.1z"/><g><path id="SVGID_11_" class="st6" d="M1300.2 256.9l32.6 10.6 5 6.7 5.5 27.8-33.9 33.8-5.9 15.5-55.4 24.9-11.1-.2-36.9-15.3-5.8-3.4-38.2 8.3 3.9-8.6 30.9-16.6 21.1-3.4 26.4 6.8 6.2-3.4 27-29 5.6-5.4 12.4-19.9-1.1-22.3z"/><defs><path id="SVGID_70_" d="M1300.2 256.9l32.6 10.6 5 6.7 5.5 27.8-33.9 33.8-5.9 15.5-55.4 24.9-11.1-.2-36.9-15.3-5.8-3.4-38.2 8.3 3.9-8.6 30.9-16.6 21.1-3.4 26.4 6.8 6.2-3.4 27-29 5.6-5.4 12.4-19.9-1.1-22.3z"/></defs><clipPath id="SVGID_71_"><use xlink:href="#SVGID_70_" overflow="visible"/></clipPath><g clip-path="url(#SVGID_71_)"><path class="st8" d="M1337.2 286.4l-3.1-5.9 5.8-6 9.1 5.8-4.4 7.5zM1250.3 357.4l4-8.1 9.9 3 2.7 11.7-8.8 3.5zM1236.3 364.4l-4.7-3.9-1.6-7.3 7.2-4.8 8.1 3.7-2.4 8.8zM1314.1 290.5l-10.1 3.6-3.6 8.3 7.1 14.1 9.4-.7 7.3-16.6zM1333.6 302.9l-4.2-2.1 2-6.3 5.2-1.2 1.2 7.4zM1304.7 330.8l4.1-6.4-5.3-3.1-8.4.2-1 7.3 5.4 5.2zM1300.8 347.7l-3.3-7.3 4.1-4.3 3.2 3.1 1.3 9.4zM1292.4 349.9l-3.2-5.2.9-7.4-8.4 2.3-5.1 5.3-3.1 7.5 6.5 6.2zM1285.8 333.2l1-5.3-4.2.1-6.3 4.3 4.3 2.1zM1268.2 349.3l4.1-8.5-8.4.2zM1247.9 346.7l8.1-1.8 1.4-8.1-6.5-3.1-9.5 6.6zM1220.3 333.1l-10.6-6.1-8.4 4.4-2.3 7.6 11 4.8zM1224.6 350.7l10.4-3.7-6-8-12 2 .2 6.7z"/><path class="st8" d="M1236.6 341.3l-1.2-4.5 7.9-1.5-.1 5.3zM1316.3 282.6l3.2 4.2 11.9-.8-3.6-8.7-7.9-6.9-5.5 6.3zM1308.7 281.6l1.9 5.8-8.8 2.1-6.2-4 4-6.2zM1300.6 271.7l7.6 2.5 5.7-4.9-5-7.1-7.3 2zM1185 347l-1 6 4.6 1.1 4.2-3.3-1.8-4.3zM1192.1 354.7l-1.6 6.2 9.6-.2 2.2-6.7-4.4-3.7zM1205.7 364.8l1.8 4.4 7.3-2zM1171.8 345.7l-1.2 5.1 1.7 1.5 6.7 1.2 2.9-5.2-5.1-2.9zM1290.4 296.3l-2.6 6.1 6-.4 4.1-4.7-1.8-4.4zM1288.3 308.4l7.5.9-2.6 6.2-4.3 1.8-4.8-4.2zM1280 319.1l4.7 2.7-7 6.4-5.7-5.2-1-7 5.6-2.6zM1259.9 329.7l3.4 5.8 7.2-3.5-3.5-10-7.7-1.2-5.4 7.9 1.7 2.8z"/></g><defs><path id="SVGID_72_" d="M1300.2 256.9l32.6 10.6 5 6.7 5.5 27.8-33.9 33.8-5.9 15.5-55.4 24.9-11.1-.2-36.9-15.3-5.8-3.4-38.2 8.3 3.9-8.6 30.9-16.6 21.1-3.4 26.4 6.8 6.2-3.4 27-29 5.6-5.4 12.4-19.9-1.1-22.3z"/></defs><clipPath id="SVGID_73_"><use xlink:href="#SVGID_72_" overflow="visible"/></clipPath><path clip-path="url(#SVGID_73_)" fill="#ff6654" d="M1208 363l2-7 8-1 7 6-3 12z"/><defs><path id="SVGID_74_" d="M1300.2 256.9l32.6 10.6 5 6.7 5.5 27.8-33.9 33.8-5.9 15.5-55.4 24.9-11.1-.2-36.9-15.3-5.8-3.4-38.2 8.3 3.9-8.6 30.9-16.6 21.1-3.4 26.4 6.8 6.2-3.4 27-29 5.6-5.4 12.4-19.9-1.1-22.3z"/></defs><clipPath id="SVGID_75_"><use xlink:href="#SVGID_74_" overflow="visible"/></clipPath><path clip-path="url(#SVGID_75_)" fill="#ff6654" d="M1227 376l2-9h6l4 7-2 4z"/><defs><path id="SVGID_76_" d="M1300.2 256.9l32.6 10.6 5 6.7 5.5 27.8-33.9 33.8-5.9 15.5-55.4 24.9-11.1-.2-36.9-15.3-5.8-3.4-38.2 8.3 3.9-8.6 30.9-16.6 21.1-3.4 26.4 6.8 6.2-3.4 27-29 5.6-5.4 12.4-19.9-1.1-22.3z"/></defs><clipPath id="SVGID_77_"><use xlink:href="#SVGID_76_" overflow="visible"/></clipPath><path clip-path="url(#SVGID_77_)" fill="#ff6654" d="M1244 378l-3-11 7-4 6 5 .8 7.2z"/><g><defs><path id="SVGID_78_" d="M1300.2 256.9l32.6 10.6 5 6.7 5.5 27.8-33.9 33.8-5.9 15.5-55.4 24.9-11.1-.2-36.9-15.3-5.8-3.4-38.2 8.3 3.9-8.6 30.9-16.6 21.1-3.4 26.4 6.8 6.2-3.4 27-29 5.6-5.4 12.4-19.9-1.1-22.3z"/></defs><clipPath id="SVGID_79_"><use xlink:href="#SVGID_78_" overflow="visible"/></clipPath><path clip-path="url(#SVGID_79_)" fill="#ff6654" d="M1205 354l-1-5 7-2 4 4-3 3z"/></g><g><defs><path id="SVGID_80_" d="M1300.2 256.9l32.6 10.6 5 6.7 5.5 27.8-33.9 33.8-5.9 15.5-55.4 24.9-11.1-.2-36.9-15.3-5.8-3.4-38.2 8.3 3.9-8.6 30.9-16.6 21.1-3.4 26.4 6.8 6.2-3.4 27-29 5.6-5.4 12.4-19.9-1.1-22.3z"/></defs><clipPath id="SVGID_81_"><use xlink:href="#SVGID_80_" overflow="visible"/></clipPath><path clip-path="url(#SVGID_81_)" fill="#ff6654" d="M1189 340l6 7 5-1v-3l-6-7z"/></g><g><defs><path id="SVGID_82_" d="M1300.2 256.9l32.6 10.6 5 6.7 5.5 27.8-33.9 33.8-5.9 15.5-55.4 24.9-11.1-.2-36.9-15.3-5.8-3.4-38.2 8.3 3.9-8.6 30.9-16.6 21.1-3.4 26.4 6.8 6.2-3.4 27-29 5.6-5.4 12.4-19.9-1.1-22.3z"/></defs><clipPath id="SVGID_83_"><use xlink:href="#SVGID_82_" overflow="visible"/></clipPath><path clip-path="url(#SVGID_83_)" fill="#ff6654" d="M1172 366l3-10h7l3 4z"/></g><g><defs><path id="SVGID_84_" d="M1300.2 256.9l32.6 10.6 5 6.7 5.5 27.8-33.9 33.8-5.9 15.5-55.4 24.9-11.1-.2-36.9-15.3-5.8-3.4-38.2 8.3 3.9-8.6 30.9-16.6 21.1-3.4 26.4 6.8 6.2-3.4 27-29 5.6-5.4 12.4-19.9-1.1-22.3z"/></defs><clipPath id="SVGID_85_"><use xlink:href="#SVGID_84_" overflow="visible"/></clipPath><path clip-path="url(#SVGID_85_)" fill="#ff6654" d="M1160 355l9 5-3 6-13 1 1-8z"/></g><g><defs><path id="SVGID_86_" d="M1300.2 256.9l32.6 10.6 5 6.7 5.5 27.8-33.9 33.8-5.9 15.5-55.4 24.9-11.1-.2-36.9-15.3-5.8-3.4-38.2 8.3 3.9-8.6 30.9-16.6 21.1-3.4 26.4 6.8 6.2-3.4 27-29 5.6-5.4 12.4-19.9-1.1-22.3z"/></defs><clipPath id="SVGID_87_"><use xlink:href="#SVGID_86_" overflow="visible"/></clipPath><path d="M1324 327c0-1-3-12-3-12l5-10 13 2 1 7-16 13z" clip-path="url(#SVGID_87_)" fill="#ff6654"/></g><g><defs><path id="SVGID_88_" d="M1300.2 256.9l32.6 10.6 5 6.7 5.5 27.8-33.9 33.8-5.9 15.5-55.4 24.9-11.1-.2-36.9-15.3-5.8-3.4-38.2 8.3 3.9-8.6 30.9-16.6 21.1-3.4 26.4 6.8 6.2-3.4 27-29 5.6-5.4 12.4-19.9-1.1-22.3z"/></defs><clipPath id="SVGID_89_"><use xlink:href="#SVGID_88_" overflow="visible"/></clipPath><path clip-path="url(#SVGID_89_)" fill="#ff6654" d="M1314 332l-2-9 5-3 3 8z"/></g></g><g><path id="SVGID_13_" class="st6" d="M1144.1 256.9l-18 7-34 36-6 3-35-4-5-2-19-17-4 3-13 4-10-2 18-16 14-1 19 11h26l5-4 25-35 32-18h26l16 15 11 25-.4 26.8L1179 302l-7 1-4-11.5-2.2-23.2"/><defs><path id="SVGID_90_" d="M1144.1 256.9l-18 7-34 36-6 3-35-4-5-2-19-17-4 3-13 4-10-2 18-16 14-1 19 11h26l5-4 25-35 32-18h26l16 15 11 25-.4 26.8L1179 302l-7 1-4-11.5-2.2-23.2"/></defs><clipPath id="SVGID_91_"><use xlink:href="#SVGID_90_" overflow="visible"/></clipPath><g clip-path="url(#SVGID_91_)"><path class="st8" d="M1180 254.5l1.6-6.9 7.6-1.1 3.5 3.7-1.8 7.5-6.1.9zM1169.9 250.6l.4 4.5 5.5 1.3 3-6.6-5.1-2.7zM1197.3 232.2l-1.7 6.9 9.7 2.3-.5-10.3zM1178 284.1l3.4-2.1 3.8 2.4-.6 2.8-3.1.7zM1208.1 250l-.4 6.1 6.8 1.6 5.5-5.9-3.9-5zM1188.1 261.8v4.1l3.2 3.8 5.6-1.7 1.4-5.8-5.6-2.4zM1181.1 303.9l1.8 4.3 5.6 2.4 5.8-2.8-2.5-6.7-8.5-3.1zM1185.4 272.6l4.5 2.1-.2 5-4.2 1-4.3-3.1zM1181.7 232.7l-6.3 4.7-6.1-.4-.7-5.3 5.7-6.9zM1181.1 234.9l-4 5 3.3 5.7 7.7-1.7-3-8zM1172.7 223.9l-5.2 4.3-4.5-.8-2.8-8.8 3.7-5 9.1 1.7zM1165.4 232l1.7 4.7-5 3-7.7-3.2 2.9-6.4zM1165 241.6l-1.7 2.7 3.4 2.9 3.4-1.3-2-4.6zM1153.7 215.4l4.9 5.2-.5 6.3-5.1-.4-3.9-5.6.7-6.5zM1147.5 228.3l4.6 2.1-1.9 3.7-4.8 2.9-3.2-3.8 1.2-4.9zM1132.1 220.9l7 6 6-1 2-2-3-8z"/><path class="st8" d="M1133.6 221.9v4.1l3.2 3.8-5.5 1.8-4.9-1.2-4.4-3.1 1.4-15.8zM1139.1 232.9l2 4-5 3-5.3-2.3 1.3-4.7zM1121.1 229.9l5 3 1 4-6 1-4-4zM1112.1 238.9l5-1 4 4-4 3-7-2zM1098.8 257.5l.3 4.4-4 4-6.4-.6-7.8-5.9 8.2-4.3zM1094.9 246l8.2-.1 1 5-3 4-5.9-1.7-3.4-2.8zM1085.1 266.9l8 4-2 6-5 1-6-3zM1197 271.4l-2.2 3.3-1 5.3 6.2 5.2 3.6-13.1zM1195.1 287.9l-7-4-4 7 3 5 9-1zM1066.3 276.2l-5.6-7.2-4.1 4.9-1.5 7 5 2.8 3.1-2.1zM1049.1 280.9l5.2-4.6-.5-6.3-2.5-2.7-6.7 2.5.5 9.1zM1032.1 285.9l5-6 7 2 3 6-8 4zM1032.1 265.9l1 6 6 5 4-5-5-7zM1021.1 266.9c0 1 1 7 1 7l6 1 2-4-1-5-8 1zM1016.1 285.9l1-5 6-3 1 7z"/><path transform="rotate(-45.001 1033.064 277.902)" class="st8" d="M1031.7 276.5h2.8v2.8h-2.8z"/><path class="st8" d="M1067.8 275.3l-1.7 6.6 7 3 4.4-5.7-1.8-5.2zM1080.4 281.1l-2.8 4 4.3 4.6 5-3.3-1.1-5.8zM1062.1 287.3v4.1l7 .5 4-4-7-4zM1053.1 283.9l-3 2 2 3 5 1 1-2-2-3zM1013.1 271.9l5 3-2 3-5 3-7-5 4-4zM1002.1 279.9s4 1 4 2v5h-6l-4-3 6-4zM1106.1 247.9l1 3 5 2 2-6-5-2zM1181.7 258.7l3.4 3.6-3.4 3.6-5-1.8-1.6-5.4 5-1.8z"/></g><path class="st9" d="M1046.1 296.9h38l5-6 28-35 5-3 25-8 17 6 9 18-1 26-3.1 1.5-.9-5.1-6.7-21-9.3-8.4-8-5-18 7-34 36-6 3-35-4z"/><path class="st9" d="M1144.1 256.9v5h-7l-4 3-5-5 7-4z"/><path class="st10" d="M1133.1 264.9l4-3h7l-3 3-4 1z"/><path class="st9" d="M1110.1 276.9l4 5-5 3-1 4-6-1zM1093.3 296.2l4 1 3.8-4.2-.8-2.8z"/><path class="st10" d="M1108.1 288.9l1-4 5-3-1 3-2 3z"/><g><path class="st9" d="M1123.1 264.9l2 5-5 3-2 5-6-3 7-9z"/><path class="st10" d="M1118.1 277.9l3-1 3-3 1-4-5 3z"/></g><path class="st8" d="M1102.2 261.8l1-4 5-1 2 4-4 4zM1123.2 246.8l2-5.7 4-.3 5 3-2 4zM1168 229l1 4h5l-1-4-3-2zM1147.7 241.3l3-3 6 2v3l-3 1zM1176.3 273.8v-4l5-1 1 3-3 3zM1175.5 294.3l1 2 5-1-2-5-3 1z"/><path class="st10" d="M1152.1 261.9l2-2 3 3v4h-4.1z"/></g><g><path class="st40" d="M556.8 290.5l4.9 2.8h7l7.7-16.9-5.6.7-4.2-2.1-.7-6.3-9.1 13.3z"/><path class="st40" d="M544.2 283.4l-2.8-11.2 4.9 2.1 6.3-1.4 1.4-3.5 4.9 10.5.7 12.7-4.9 2.1h-8.4zM514.7 295.4l.7-26.7 3.5 3.5h3.5l4.2-3.5.7 25.3-7.7 2.1z"/><path class="st40" d="M515.4 268.7l2.1-4.9 5.2-.8 3.9 5.7-4.2 3.5h-3.5zM507.5 299.5l8 2.9 8.2-3.4-.4-14.7-7.6 2.6-8-4.3z"/><path class="st57" d="M515.7 286.9l7.6-2.6-4.3-6.3h-7.7l-3.6 4.6z"/><path class="st40" d="M535 294.7l.7-11.3 5 3.6h5.6l2.8-3.6v13.4l-5.6 1.4-5.6.7z"/><path class="st57" d="M535.7 283.4l5 3.6h5.6l2.8-3.6-3.5-3.5H540z"/><path class="st40" d="M531.5 301l2.1.7 2.1-.7.7 2.8-2.8 2.1-2.8-1.4z"/><path class="st57" d="M531.5 301l2.1.7 2.1-.7-2.1-1.4zM541.4 272.2l4.9 2.1 6.3-1.4 1.4-3.5-2.1-2.8h-7l-3.5 2.8zM496.5 301l2.1 1.4 4.2-1.4-2.8-4.2h-2.8z"/><path class="st40" d="M496.5 301v5.6l2.8 1.4 4.9-2.1-1.4-4.9-4.2 1.4z"/><path class="st57" d="M565.9 268.7l.7 6.3 4.2 2.1 5.6-.7 2.1-4.2-2.8-4.2-4.9-.7z"/></g><g><path class="st42" d="M1018 54.7l-2.9 11.4 14.6-9z"/><path class="st58" d="M1041.6 104.2l9.6 11.4v15.7l-7.1 3.7zM1004.3 104.2l-9.1 11.4v15.7l7.1 3.7z"/><path id="SVGID_15_" class="st3" d="M1038 166l7-11.1v-29.5l-3-21.2-9.8-36.1h-17.1l-10.7 36.1-2.4 21.2v22.3l7 18.3 14 4z"/><defs><path id="SVGID_92_" d="M1038 166l7-11.1v-29.5l-3-21.2-9.8-36.1h-17.1l-10.7 36.1-2.4 21.2v22.3l7 18.3 14 4z"/></defs><clipPath id="SVGID_93_"><use xlink:href="#SVGID_92_" overflow="visible"/></clipPath><path clip-path="url(#SVGID_93_)" fill="none" stroke="#cceaff" stroke-width="2" stroke-miterlimit="10" d="M1019.7 65.4l-6.8 39.4"/><defs><path id="SVGID_94_" d="M1038 166l7-11.1v-29.5l-3-21.2-9.8-36.1h-17.1l-10.7 36.1-2.4 21.2v22.3l7 18.3 14 4z"/></defs><clipPath id="SVGID_95_"><use xlink:href="#SVGID_94_" overflow="visible"/></clipPath><path clip-path="url(#SVGID_95_)" fill="none" stroke="#cceaff" stroke-width="2" stroke-miterlimit="10" d="M1027.3 65.4l6.8 39.4"/><defs><path id="SVGID_96_" d="M1038 166l7-11.1v-29.5l-3-21.2-9.8-36.1h-17.1l-10.7 36.1-2.4 21.2v22.3l7 18.3 14 4z"/></defs><clipPath id="SVGID_97_"><use xlink:href="#SVGID_96_" overflow="visible"/></clipPath><circle cx="1023.5" cy="89.1" clip-path="url(#SVGID_97_)" fill="#9ea5cc" r="3"/><g><defs><path id="SVGID_98_" d="M1038 166l7-11.1v-29.5l-3-21.2-9.8-36.1h-17.1l-10.7 36.1-2.4 21.2v22.3l7 18.3 14 4z"/></defs><clipPath id="SVGID_99_"><use xlink:href="#SVGID_98_" overflow="visible"/></clipPath><circle cx="1036.8" cy="89.1" clip-path="url(#SVGID_99_)" fill="#9ea5cc" r="3"/></g><g><defs><path id="SVGID_100_" d="M1038 166l7-11.1v-29.5l-3-21.2-9.8-36.1h-17.1l-10.7 36.1-2.4 21.2v22.3l7 18.3 14 4z"/></defs><clipPath id="SVGID_101_"><use xlink:href="#SVGID_100_" overflow="visible"/></clipPath><circle cx="1008.6" cy="89.1" clip-path="url(#SVGID_101_)" fill="#9ea5cc" r="3"/></g><g><defs><path id="SVGID_102_" d="M1038 166l7-11.1v-29.5l-3-21.2-9.8-36.1h-17.1l-10.7 36.1-2.4 21.2v22.3l7 18.3 14 4z"/></defs><clipPath id="SVGID_103_"><use xlink:href="#SVGID_102_" overflow="visible"/></clipPath><path clip-path="url(#SVGID_103_)" fill="#cceaff" d="M1001.1 104.5h51.5v22.3h-51.5z"/></g><path class="st1" d="M1038 167.5h-29l5 5.3-2.5 4.2h24l-2.5-4.2zM1009 165.7h29.1v1.8H1009z"/><path class="st58" d="M1009 154.9l-7-7.2-10.2 21 5.4 22.3h4.8v-16.9l7-8.1z"/><circle cx="1023.2" cy="115.6" r="5.1" fill="#285796"/><g><path class="st66" d="M1019 150h9M1028 159h-9M1028 177h-9M1019 168h9M1019 186h9M1028 145v50M1019 195v-50"/></g><path class="st58" d="M1038 154.9l7-7.2 10.2 21-5.4 22.3h-4.8v-16.9l-7-8.1z"/><circle transform="rotate(-.628 1023.385 141.408) scale(.99996)" cx="1023.5" cy="141.2" fill="#285796" stroke="#cceaff" stroke-width="2" stroke-miterlimit="10" r="8.2"/></g><g><path class="st1" d="M412.6 354l-5.2 8 4.3 7.4h54.2l3.9-7.2-5-8.2z"/><path class="st68" d="M419.2 357.1v10.1h39l3.7-7.2-3.7-2.9z"/><path class="st3" d="M464.8 354h-52.3l-2.6-7.1 2.6-9h50.8l4.2 10.3z"/><path class="st69" d="M491 337.8l-15.7-11"/><path class="st3" d="M491.4 335.2l-1.9-1.3-.7 5.1 2.8 2 2.8-1.7-.3-1.6-1.5.6 3.1.1 2.5.9.8-1.4-3.9-2.7z"/><path class="st3" d="M491.4 335.2l-1.9-1.3-.7 5.1 2.8 2 2.9-1-.4-2.3"/><path class="st69" d="M456.4 333.3l18.4-6.9"/><circle class="st3" cx="474.8" cy="326.4" r="2.3"/><path class="st3" d="M438 334.4h8.1v3.5H438zM440.3 313.7h3.5v20.7h-3.5z"/><path class="st70" d="M448.4 312.6l-2.3 1.1H438l-2.3-1.1v-2.3h12.7z"/><path class="st3" d="M435.7 301.1h12.7v9.2h-12.7z"/><circle class="st70" cx="442.1" cy="305.1" r="1.7"/><path class="st70" d="M430 326.4l-9.2 4.6v6.9h9.2z"/><path class="st3" d="M411.6 327.5l2.3 2.3 6.9 1.2 9.2-4.6 3.4-4.6v-4.6z"/><path class="st71" d="M417.3 327.5l-1.1-16.1 13.8 10.4"/><circle class="st3" cx="416.2" cy="311.4" r="2.3"/><path class="st3" d="M450.7 334.4l2.3-4.6h3.4l3.5 2.3v5.8h-9.2z"/><path class="st68" d="M448.4 303.4h4.6v3.5h-4.6z"/><path class="st71" d="M435.3 280.5c-.4-3.1 3.4-5 5.8-3.1 3.4 2.7-2 5.7-1.6 9.2M439.8 289.3l.4 3.2M420.9 292.6c-1.7-1.5-.4-4.4 1.8-4.4 3.2-.1 1.6 4.1 3.5 5.9M427.6 295.3l1.7 1.6M455.7 284.3c1.2-1.9 4.2-1.2 4.7 1 .6 3.1-3.8 2.3-5.2 4.4M454.1 291.3l-1.3 2"/><path class="st69" d="M440.3 329.8h3.5M440.3 324.1h3.5M440.3 318.3h3.5"/><g><path class="st3" d="M419.2 357.1h-5.8l-3 5.1 3 5h5.8l2.9-5z"/><path class="st70" d="M417.7 359.7h-2.9l-1.4 2.5 1.4 2.5h2.9l1.4-2.5z"/><path class="st3" d="M434.1 357.1h-5.8l-2.9 5.1 2.9 5h5.8l2.9-5z"/><path class="st70" d="M432.6 359.7h-2.8l-1.5 2.5 1.5 2.5h2.8l1.5-2.5z"/><path class="st3" d="M449.1 357.1h-5.8l-3 5.1 3 5h5.8l2.9-5z"/><path class="st70" d="M447.6 359.7h-2.9l-1.4 2.5 1.4 2.5h2.9l1.4-2.5z"/><path class="st3" d="M464 357.1h-5.8l-2.9 5.1 2.9 5h5.8l2.9-5z"/><path class="st70" d="M462.6 359.7h-2.9l-1.4 2.5 1.4 2.5h2.9l1.4-2.5z"/></g></g><path class="st2" d="M1742 264l-12 10 5.4-13.1z"/><path class="st3" d="M1859 213l11-3 8 10-3 13-6 2-7-3-1.3 4.8-8.7 1.2-11-4h-8l-9-5 14-7 15 1zM1774.7 235l-8.7 8 18 2 10 8 14-3-12 15-24-1-7-5-8 1-10-15 6-18 16.7-3z"/><g><path fill="#ffe582" d="M171.4 233.9l11.2-5.6 11.2 5.6 12.3-5.6 1.2 22.4-13.5 5.6-10.1-4.4-10 5.6z"/><path fill="none" stroke="#ff9d8a" stroke-width="3" stroke-miterlimit="10" d="M175.9 282.1l-4.5-49.3"/></g><g><path id="SVGID_17_" class="st6" d="M775.5 306.2l-3.5-8.5-8.3-10.6-34.4-9.4-27.6 7-25.4 33L631 334l-52.2-6.3h-31l-25 13-11 15-2 6h9l8-10 13-4.8 31 .8 60.2 19.8 55-8 58-32.5 10.2-22.6z"/><defs><path id="SVGID_104_" d="M775.5 306.2l-3.5-8.5-8.3-10.6-34.4-9.4-27.6 7-25.4 33L631 334l-52.2-6.3h-31l-25 13-11 15-2 6h9l8-10 13-4.8 31 .8 60.2 19.8 55-8 58-32.5 10.2-22.6z"/></defs><clipPath id="SVGID_105_"><use xlink:href="#SVGID_104_" overflow="visible"/></clipPath><g clip-path="url(#SVGID_105_)"><path class="st8" d="M633.2 345.7l3.5-7.2 8.9 2.7 2.4 10.3-7.8 3.2zM620.8 351.9l-4.2-3.4-1.4-6.5 6.4-4.3 7.2 3.3-2.2 7.8zM705 325l.8-7.8 9-1.7 3.6 8.5-5.9 4.5zM729.3 301l-8.9-4-6.5 4.8 2.9 6.5 6.2 2.2zM710 312l-1.2-6.8-5.3-.7-6.2 7 5.6 3.6zM707.9 300.2l-3.7-1.7 1.7-5.7 4.7-1 1 6.5zM697.6 332l1.7-9.4-5.7-5.5-4.6 2.9-2.6 8.5 7.6 7.3zM681.6 322l3.6-5.6-4.7-2.8-7.5.2-.8 6.5 4.7 4.6zM676.2 336.5l-1-5.9 3.6-3.8 5.4 5-1.4 6.1zM670.7 339.1l-2.9-4.7.8-6.5-7.5 2-4.5 4.7-2.7 6.6 5.7 5.5zM610.4 339.7l3.7-1.9.8-8.4-9.3 2-1.8 5.7zM560.6 326.7l.5 5.5-5.4 2.5-4.7-2.7-.6-3.9.6-3.6 3.2.1zM543.9 340.4l6.7 1 .2 6.3 1.3 2.3-6.1 1.8-4.3-7.7zM625.1 354.8l3.9-3.8 4.5 2.8-3.3 4.2zM542 327.7l1 8.2-3 3.8-3.7-3-.8-6.7M621 331.4l-1-4 7-1.3-.1 4.7zM694.9 341.3l-7-4.8-2.4 4.1-.8 6.7 6.6-.5zM679.5 349l-3.1-6.4-7.7 3.1-.8 8zM662.2 360l.6-8.2-9.9-5-.9 6.7-3.8 2.9 3 5.1zM643 370.2l1-9.2-7.2-3-5.3 3.5.4 6.6zM574.7 324l6.1 2.1.8 9.8-3.5 2.6-5.1-2.4-2.2-3.8zM584.2 338.2l-3.6 4.2 4.2 3.7 3.8-2.9-1.6-3.9zM562.8 336.9l-1 4.1 1.4 1.2 5.3.9 2.4-4.1-4.1-2.4zM751.9 321.8l-4-3.7-4.1 1.1-2.6 8zM702 335.4l5.4-4 4 5.4-1.9 5.3-6.5 1.6z"/></g><defs><path id="SVGID_106_" d="M775.5 306.2l-3.5-8.5-8.3-10.6-34.4-9.4-27.6 7-25.4 33L631 334l-52.2-6.3h-31l-25 13-11 15-2 6h9l8-10 13-4.8 31 .8 60.2 19.8 55-8 58-32.5 10.2-22.6z"/></defs><clipPath id="SVGID_107_"><use xlink:href="#SVGID_106_" overflow="visible"/></clipPath><path clip-path="url(#SVGID_107_)" fill="#ff9d8a" d="M686 359.5l32-28 14.5-25.7L764 287l11 9.7 6 14.3-30 20z"/><defs><path id="SVGID_108_" d="M775.5 306.2l-3.5-8.5-8.3-10.6-34.4-9.4-27.6 7-25.4 33L631 334l-52.2-6.3h-31l-25 13-11 15-2 6h9l8-10 13-4.8 31 .8 60.2 19.8 55-8 58-32.5 10.2-22.6z"/></defs><clipPath id="SVGID_109_"><use xlink:href="#SVGID_108_" overflow="visible"/></clipPath><path clip-path="url(#SVGID_109_)" fill="#ff8e78" d="M757.3 304.7l5.4-3L773 308l-15.7-.3z"/><defs><path id="SVGID_110_" d="M775.5 306.2l-3.5-8.5-8.3-10.6-34.4-9.4-27.6 7-25.4 33L631 334l-52.2-6.3h-31l-25 13-11 15-2 6h9l8-10 13-4.8 31 .8 60.2 19.8 55-8 58-32.5 10.2-22.6z"/></defs><clipPath id="SVGID_111_"><use xlink:href="#SVGID_110_" overflow="visible"/></clipPath><path clip-path="url(#SVGID_111_)" fill="#ff6654" d="M616.5 366.2l4.5-6.4 6 1.4 1.8 8.3z"/><defs><path id="SVGID_112_" d="M775.5 306.2l-3.5-8.5-8.3-10.6-34.4-9.4-27.6 7-25.4 33L631 334l-52.2-6.3h-31l-25 13-11 15-2 6h9l8-10 13-4.8 31 .8 60.2 19.8 55-8 58-32.5 10.2-22.6z"/></defs><clipPath id="SVGID_113_"><use xlink:href="#SVGID_112_" overflow="visible"/></clipPath><path clip-path="url(#SVGID_113_)" fill="#ff6654" d="M672.9 362l1.3-6.6 8.8-4.9 9 5.3-3.8 6.2z"/><defs><path id="SVGID_114_" d="M775.5 306.2l-3.5-8.5-8.3-10.6-34.4-9.4-27.6 7-25.4 33L631 334l-52.2-6.3h-31l-25 13-11 15-2 6h9l8-10 13-4.8 31 .8 60.2 19.8 55-8 58-32.5 10.2-22.6z"/></defs><clipPath id="SVGID_115_"><use xlink:href="#SVGID_114_" overflow="visible"/></clipPath><path clip-path="url(#SVGID_115_)" fill="#ff6654" d="M683.7 300l4.8 8.8 5 1 8.5-9.3-8-6.5z"/><defs><path id="SVGID_116_" d="M775.5 306.2l-3.5-8.5-8.3-10.6-34.4-9.4-27.6 7-25.4 33L631 334l-52.2-6.3h-31l-25 13-11 15-2 6h9l8-10 13-4.8 31 .8 60.2 19.8 55-8 58-32.5 10.2-22.6z"/></defs><clipPath id="SVGID_117_"><use xlink:href="#SVGID_116_" overflow="visible"/></clipPath><path clip-path="url(#SVGID_117_)" fill="#ff6654" d="M697.3 285.1l3.3 5.7 7.5-2.7 2.7-5.5-8.1-3.9z"/><defs><path id="SVGID_118_" d="M775.5 306.2l-3.5-8.5-8.3-10.6-34.4-9.4-27.6 7-25.4 33L631 334l-52.2-6.3h-31l-25 13-11 15-2 6h9l8-10 13-4.8 31 .8 60.2 19.8 55-8 58-32.5 10.2-22.6z"/></defs><clipPath id="SVGID_119_"><use xlink:href="#SVGID_118_" overflow="visible"/></clipPath><path clip-path="url(#SVGID_119_)" fill="#ff6654" d="M724.3 286.3l-6.2 2.7 1.8 5.2 6-.6 3.4-4.3z"/><defs><path id="SVGID_120_" d="M775.5 306.2l-3.5-8.5-8.3-10.6-34.4-9.4-27.6 7-25.4 33L631 334l-52.2-6.3h-31l-25 13-11 15-2 6h9l8-10 13-4.8 31 .8 60.2 19.8 55-8 58-32.5 10.2-22.6z"/></defs><clipPath id="SVGID_121_"><use xlink:href="#SVGID_120_" overflow="visible"/></clipPath><path clip-path="url(#SVGID_121_)" fill="#ff6654" d="M643.5 335l.7-6.2 9.1-4.8 3 5.3-6.3 8.2z"/><defs><path id="SVGID_122_" d="M775.5 306.2l-3.5-8.5-8.3-10.6-34.4-9.4-27.6 7-25.4 33L631 334l-52.2-6.3h-31l-25 13-11 15-2 6h9l8-10 13-4.8 31 .8 60.2 19.8 55-8 58-32.5 10.2-22.6z"/></defs><clipPath id="SVGID_123_"><use xlink:href="#SVGID_122_" overflow="visible"/></clipPath><path clip-path="url(#SVGID_123_)" fill="#ff6654" d="M631 334l2.2 2.5 6-1.5 1.6-8.8z"/><g><defs><path id="SVGID_124_" d="M775.5 306.2l-3.5-8.5-8.3-10.6-34.4-9.4-27.6 7-25.4 33L631 334l-52.2-6.3h-31l-25 13-11 15-2 6h9l8-10 13-4.8 31 .8 60.2 19.8 55-8 58-32.5 10.2-22.6z"/></defs><clipPath id="SVGID_125_"><use xlink:href="#SVGID_124_" overflow="visible"/></clipPath><path clip-path="url(#SVGID_125_)" fill="#ff6654" d="M597 358.2l1.8-6.7 7.7-3.7 4.3 6.2-1.6 7.8z"/></g><g><defs><path id="SVGID_126_" d="M775.5 306.2l-3.5-8.5-8.3-10.6-34.4-9.4-27.6 7-25.4 33L631 334l-52.2-6.3h-31l-25 13-11 15-2 6h9l8-10 13-4.8 31 .8 60.2 19.8 55-8 58-32.5 10.2-22.6z"/></defs><clipPath id="SVGID_127_"><use xlink:href="#SVGID_126_" overflow="visible"/></clipPath><path clip-path="url(#SVGID_127_)" fill="#ff6654" d="M593 342.2l4 4.8 5.8-2.8 1-4-7.3-2.7z"/></g><g><defs><path id="SVGID_128_" d="M775.5 306.2l-3.5-8.5-8.3-10.6-34.4-9.4-27.6 7-25.4 33L631 334l-52.2-6.3h-31l-25 13-11 15-2 6h9l8-10 13-4.8 31 .8 60.2 19.8 55-8 58-32.5 10.2-22.6z"/></defs><clipPath id="SVGID_129_"><use xlink:href="#SVGID_128_" overflow="visible"/></clipPath><path clip-path="url(#SVGID_129_)" fill="#ff6654" d="M586 330.7l2 4.6 5.7 1.3 2.7-3.5-1.5-6.5-7.9-.6z"/></g><g><defs><path id="SVGID_130_" d="M775.5 306.2l-3.5-8.5-8.3-10.6-34.4-9.4-27.6 7-25.4 33L631 334l-52.2-6.3h-31l-25 13-11 15-2 6h9l8-10 13-4.8 31 .8 60.2 19.8 55-8 58-32.5 10.2-22.6z"/></defs><clipPath id="SVGID_131_"><use xlink:href="#SVGID_130_" overflow="visible"/></clipPath><path clip-path="url(#SVGID_131_)" fill="#ff6654" d="M569.2 348.4l4-6 6.8 4 1 6.5z"/></g><g><defs><path id="SVGID_132_" d="M775.5 306.2l-3.5-8.5-8.3-10.6-34.4-9.4-27.6 7-25.4 33L631 334l-52.2-6.3h-31l-25 13-11 15-2 6h9l8-10 13-4.8 31 .8 60.2 19.8 55-8 58-32.5 10.2-22.6z"/></defs><clipPath id="SVGID_133_"><use xlink:href="#SVGID_132_" overflow="visible"/></clipPath><path clip-path="url(#SVGID_133_)" fill="#ff6654" d="M585.6 354.3l4.6-5.8 3.3 1.3-1.7 10z"/></g><g><defs><path id="SVGID_134_" d="M775.5 306.2l-3.5-8.5-8.3-10.6-34.4-9.4-27.6 7-25.4 33L631 334l-52.2-6.3h-31l-25 13-11 15-2 6h9l8-10 13-4.8 31 .8 60.2 19.8 55-8 58-32.5 10.2-22.6z"/></defs><clipPath id="SVGID_135_"><use xlink:href="#SVGID_134_" overflow="visible"/></clipPath><path clip-path="url(#SVGID_135_)" fill="#ff6654" d="M613.5 353.8l.7 4 3 1 2.8-3.6-3.2-2.7z"/></g><g><defs><path id="SVGID_136_" d="M775.5 306.2l-3.5-8.5-8.3-10.6-34.4-9.4-27.6 7-25.4 33L631 334l-52.2-6.3h-31l-25 13-11 15-2 6h9l8-10 13-4.8 31 .8 60.2 19.8 55-8 58-32.5 10.2-22.6z"/></defs><clipPath id="SVGID_137_"><use xlink:href="#SVGID_136_" overflow="visible"/></clipPath><path clip-path="url(#SVGID_137_)" fill="#ff6654" d="M554 348.4l.5-6.2 3.3-1.8 4 5-1.6 4.8z"/></g><g><defs><path id="SVGID_138_" d="M775.5 306.2l-3.5-8.5-8.3-10.6-34.4-9.4-27.6 7-25.4 33L631 334l-52.2-6.3h-31l-25 13-11 15-2 6h9l8-10 13-4.8 31 .8 60.2 19.8 55-8 58-32.5 10.2-22.6z"/></defs><clipPath id="SVGID_139_"><use xlink:href="#SVGID_138_" overflow="visible"/></clipPath><path clip-path="url(#SVGID_139_)" fill="#ff6654" d="M528 336.2l5.5 3.2-1.3 4-6.7 2-4.5-5.2z"/></g><g><defs><path id="SVGID_140_" d="M775.5 306.2l-3.5-8.5-8.3-10.6-34.4-9.4-27.6 7-25.4 33L631 334l-52.2-6.3h-31l-25 13-11 15-2 6h9l8-10 13-4.8 31 .8 60.2 19.8 55-8 58-32.5 10.2-22.6z"/></defs><clipPath id="SVGID_141_"><use xlink:href="#SVGID_140_" overflow="visible"/></clipPath><path clip-path="url(#SVGID_141_)" fill="#ff6654" d="M529.8 350.9l-.3-4.7 6.5-1.5 2 4z"/></g><g><defs><path id="SVGID_142_" d="M775.5 306.2l-3.5-8.5-8.3-10.6-34.4-9.4-27.6 7-25.4 33L631 334l-52.2-6.3h-31l-25 13-11 15-2 6h9l8-10 13-4.8 31 .8 60.2 19.8 55-8 58-32.5 10.2-22.6z"/></defs><clipPath id="SVGID_143_"><use xlink:href="#SVGID_142_" overflow="visible"/></clipPath><path clip-path="url(#SVGID_143_)" fill="#ff6654" d="M519.2 342.7l3.8 5-.2 3.7-9-.7z"/></g><g><defs><path id="SVGID_144_" d="M775.5 306.2l-3.5-8.5-8.3-10.6-34.4-9.4-27.6 7-25.4 33L631 334l-52.2-6.3h-31l-25 13-11 15-2 6h9l8-10 13-4.8 31 .8 60.2 19.8 55-8 58-32.5 10.2-22.6z"/></defs><clipPath id="SVGID_145_"><use xlink:href="#SVGID_144_" overflow="visible"/></clipPath><path clip-path="url(#SVGID_145_)" fill="#ff6654" d="M511.5 352.4l10.7 1.8 2.8 9.5-15.5-.3-2-6z"/></g><g><defs><path id="SVGID_146_" d="M775.5 306.2l-3.5-8.5-8.3-10.6-34.4-9.4-27.6 7-25.4 33L631 334l-52.2-6.3h-31l-25 13-11 15-2 6h9l8-10 13-4.8 31 .8 60.2 19.8 55-8 58-32.5 10.2-22.6z"/></defs><clipPath id="SVGID_147_"><use xlink:href="#SVGID_146_" overflow="visible"/></clipPath><path clip-path="url(#SVGID_147_)" fill="#ff6654" d="M545.8 337.4l2-2.7 3.7 2-1 2z"/></g><g><defs><path id="SVGID_148_" d="M775.5 306.2l-3.5-8.5-8.3-10.6-34.4-9.4-27.6 7-25.4 33L631 334l-52.2-6.3h-31l-25 13-11 15-2 6h9l8-10 13-4.8 31 .8 60.2 19.8 55-8 58-32.5 10.2-22.6z"/></defs><clipPath id="SVGID_149_"><use xlink:href="#SVGID_148_" overflow="visible"/></clipPath><path clip-path="url(#SVGID_149_)" fill="#ff6654" d="M565.3 325.7v5.3h2.4l2.3-6z"/></g><g><defs><path id="SVGID_150_" d="M775.5 306.2l-3.5-8.5-8.3-10.6-34.4-9.4-27.6 7-25.4 33L631 334l-52.2-6.3h-31l-25 13-11 15-2 6h9l8-10 13-4.8 31 .8 60.2 19.8 55-8 58-32.5 10.2-22.6z"/></defs><clipPath id="SVGID_151_"><use xlink:href="#SVGID_150_" overflow="visible"/></clipPath><path clip-path="url(#SVGID_151_)" fill="#ff6654" d="M656.7 322l3.3 4.7 7.3-1.7 1-7z"/></g><g><defs><path id="SVGID_152_" d="M775.5 306.2l-3.5-8.5-8.3-10.6-34.4-9.4-27.6 7-25.4 33L631 334l-52.2-6.3h-31l-25 13-11 15-2 6h9l8-10 13-4.8 31 .8 60.2 19.8 55-8 58-32.5 10.2-22.6z"/></defs><clipPath id="SVGID_153_"><use xlink:href="#SVGID_152_" overflow="visible"/></clipPath><path clip-path="url(#SVGID_153_)" fill="#ff6654" d="M746 286v-9h8.7l2.3 8.7-4.3 3z"/></g><g><defs><path id="SVGID_154_" d="M775.5 306.2l-3.5-8.5-8.3-10.6-34.4-9.4-27.6 7-25.4 33L631 334l-52.2-6.3h-31l-25 13-11 15-2 6h9l8-10 13-4.8 31 .8 60.2 19.8 55-8 58-32.5 10.2-22.6z"/></defs><clipPath id="SVGID_155_"><use xlink:href="#SVGID_154_" overflow="visible"/></clipPath><path clip-path="url(#SVGID_155_)" fill="#ff6654" d="M730.7 294.3l2.3-5 6-1.6 5.7 2.6-3 5-6.7 1.7z"/></g><g><defs><path id="SVGID_156_" d="M775.5 306.2l-3.5-8.5-8.3-10.6-34.4-9.4-27.6 7-25.4 33L631 334l-52.2-6.3h-31l-25 13-11 15-2 6h9l8-10 13-4.8 31 .8 60.2 19.8 55-8 58-32.5 10.2-22.6z"/></defs><clipPath id="SVGID_157_"><use xlink:href="#SVGID_156_" overflow="visible"/></clipPath><path clip-path="url(#SVGID_157_)" fill="#ff6654" d="M736.3 277l-8 6.3 2.4 2.7 8.3-1.3 5-7z"/></g><g><defs><path id="SVGID_158_" d="M775.5 306.2l-3.5-8.5-8.3-10.6-34.4-9.4-27.6 7-25.4 33L631 334l-52.2-6.3h-31l-25 13-11 15-2 6h9l8-10 13-4.8 31 .8 60.2 19.8 55-8 58-32.5 10.2-22.6z"/></defs><clipPath id="SVGID_159_"><use xlink:href="#SVGID_158_" overflow="visible"/></clipPath><path clip-path="url(#SVGID_159_)" fill="#ff6654" d="M713.3 281v5l7-1 5.4-8.3z"/></g></g><g><path class="st40" d="M296.2 352.4l-7.6-6.8-14.3-3.4-6.3-5.6-13.5-2-14.4 8.3-7.3 11.7 13.8 6.4 18.5.8 3.4-2 11.5 3.1 19-2.1z"/></g><path class="st40" d="M361.1 346.4l3.1-5.6 5.7-1.6 3.7 3.3 6.5-1.5 7.1 4.9.3 2.9-7.4 2.8-8.3 1.9-11.2-2.8z"/><path class="st57" d="M364.2 340.8l1.8 5.2 5.6 7.4-11-2.7.5-4.3z"/><path class="st40" d="M366.7 353.9l-3.2-7.2-7.2-3.9h-9.5l-11.4 6.5-3.6 6.3 6.4 3.9H357l5.7-3.2zM308.3 367.6l.8-3.3h3.3l4 3.3-4 1.6-4.1-1.6M318 358.2l-3.8 2.6 2.5 2.6h7.5l-1.8-4.1zM322.5 367l6.5.2 4 3.4-5.4 2.6-4.3-1.8zM209 369l1-4h4l2 2 3 2-5 2-5-2M222.5 358l-5.9 3.9 4 4h11.8l-3.3-6.4zM558 301l3-1 3 2-2 3h-6zM571 298h3v3l-5-2z"/><g><path class="st40" d="M1615 320h11l2 6 4 6-5 5-11-2-4-5z"/></g><path class="st40" d="M1633 336l5 2v2l-6 1-2-2zM1639 330l-1 3 5 1v-2zM1601 335l-1 4 3 2 4-1-2-4z"/><path class="st44" d="M1089.7 308.2l31 5.5 25.6-2-16.6 11-21.8-2.5zM987 187l2 8-7-4zM1018 210l15 5 21-6-8 8-13.7 3.7z"/><path class="st10" d="M1097.1 296.9l.9-2.9 3.1-1v1.9l-2 2z"/><path class="st8" d="M1095.2 274.8v-4l4-3 3 3-2 5z"/><path class="st10" d="M1106.3 145.4h-2.4l-1.2 8.4 2.6 1.4 3.2-4.4zM1211 283.5l-2 2.5v4l2 1 2-4z"/><circle class="st10" cx="859.5" cy="229.5" r="5.5"/><circle class="st10" cx="848.5" cy="253.5" r="5.5"/><circle class="st10" cx="894" cy="192" r="5.5"/><circle transform="rotate(-31.864 933.33 188.142)" class="st10" cx="933.3" cy="188.1" r="5.5"/><circle class="st10" cx="946.5" cy="202.5" r="4.5"/><circle class="st102" cx="860.5" cy="229.5" r="1.5"/><circle class="st102" cx="846.5" cy="255.5" r="1.5"/><circle class="st102" cx="895.5" cy="190.5" r="1.5"/><circle transform="rotate(-31.864 934.508 186.544)" class="st102" cx="934.5" cy="186.5" r="1.5"/><circle class="st102" cx="947.5" cy="201.5" r="1.5"/><path class="st3" d="M1642 277l-23 9 5 11 15 3 6-6 5 5h16l22-8-18-1-4-5-10 2z"/><path class="st2" d="M1684.2 255.1l9.8 3.9h19l-18 4-16.3-3.3zM1793 217l14 1-13-6z"/><path class="st44" d="M1756 344l16 12 39-9-20 16h-25z"/><path class="st45" d="M1755 331l12-16 21-4 9 7-15 14z"/><path class="st44" d="M1802 304l2 15-16-8zM1614 390l31-14 3-15 16-8-4 16 6 11-5.5 10z"/><path class="st9" d="M1156 366l32-4 12.1-1.3-6.1-3.7z"/><path class="st11" d="M604 186l6 2 5-5-5-2z"/><path class="st44" d="M379.4 368.2l-4.5-4.3-6.7 1.9-.6 3.3 11.2-.2z"/><path class="st57" d="M267 351.5l-1.9 10.3 3.4-2z"/><path class="st9" d="M708.8 345.5l4.2 1.5 11-3.5v-7l-9 2.7zM729 331l.8 4.2 8.2.6 5.2-3.6v-8.7zM745.3 306.7l1.6 12 6.1 1.7 5.6-5.2.3-7.5-2.7-6.9z"/><path class="st10" d="M738 335.8l.5-3.6 4.5-6.2 2.8.8-2.6 5.4zM713 347l2.2-4.2 5.3-2 3.5 2.7zM753 320.4l-1.5-4.2 1.7-4.6 5.7-3.9-.3 7.5z"/><path class="st103" d="M749.8 305l-3 4.8-.3 4.2-1.5-5 .8-2zM731.5 330.2l3.3-4.7 6-2-3.3-1.7-4.5 1.7z"/><path class="st44" d="M1172 303l-13 6 9.1-17.7zM167 285l3.5 12.5 18 7 21.5-1-19.5 8.5-24-5.5L155 298zM119 322l10.5 8.5h22l6.5-6.5-24.5 1zM288.5 303.5l-10 9-25.5 4 26 3 14.5-8.5z"/><g><path class="st40" d="M922.7 326.7l14-7 10 4 4-10 12-2 14 10 11 11-4 9-52 1-10-5z"/><path class="st57" d="M947.7 320.7l5 3 10-1-11 4-5-3z"/></g><g><path class="st3" d="M812.7 319.6l16.4 1.5 3.4 4.7-.6 14.4-1.2 1.5-8.4.1-.7-2 .4-8.3-9-1 1.5 12-5 6-11.2-2.8-3.6-3.2 2.6-6.7 6.8 1.8-4.7-12.4v-6.7z"/><path class="st1" d="M821.8 341.2l8.9.5-.3 5 4 2.2 1.2 2.6-14.5-1.3z"/><path class="st3" d="M799.4 318.5l2.8-13.6 3.4-11.9 15.8 2.2 2.6 1.4 7 11.1 9.3 3.6-.9 5.1-13.3-2.4-4.6-6-1.4 8.8-.8 2.8-7.1-.1z"/><path class="st42" d="M807.2 298.9l-2.1 7.8 6.5 2.9 4.8 9.9-17.2-.9 1-9.1z"/><path class="st3" d="M810.8 310.7l-8.3-3 6.8-10-3.7-4.7-5 1.9-7.4 12 1.9 7 13.3 2 2.9-2.1z"/><path class="st42" d="M804.2 320.4l-4.9-.3.1-2 5.6.5h6.6l7.5-.7.2 2-7.7-.5z"/><path class="st1" d="M812.9 317.4l-4.9-.9 2-6.5 5.4 2 3 1.5-.6 1.6-1.7-.6 1 2.9 2.8 1-.3 2-4.7-.6z"/><path class="st42" d="M820.5 278l-4.3 3.2-.9 8.1 7.8 3.3 2.8-3.2-.2-7.5z"/><path fill="#e8bf98" d="M823.6 284.7l.2 5-2.2.5-1.5 3.5-6.3-3.7.3-8.5 7.4-.2z"/><circle transform="rotate(-65.139 820.446 286.123)" class="st105" cx="820.4" cy="286.1" r="1"/><path class="st105" d="M823.6 284.7l-4-1.8-5 .1 1.4-3 3.4-1.8 3.2 3.1z"/><path class="st3" d="M823.1 292.6l-7.8-3.3 1.5-8.2 3.9-1.5 5 2.3-3.1-4.4-7.7-2.2-7.9 3.9-1.7 7.5 1.6 4.7 4.5 7.6 11.2-3.9z"/><path class="st42" d="M819.6 297.1l-8.8-1-5.2-3.1.9-1.8 5 2.9 8 1 3.4-.8.4 2z"/><path class="st1" d="M846.7 315.3l-1.3-1.2 2.7-.9-.3-1.4-5.2.5-4.1-1.8-1.2 6.3 4.4.3 3.2 1.3 4.3-.1.5-2.3z"/><path class="st40" d="M845.4 314.1l1.1 1.9 3.6.6 1.3-2.6-2.1-2.5-3.1 1.2z"/><path class="st1" d="M841.6 314.3l1-2 5.2-.5.3 1.4-4.4 1.8zM798.8 335.9l-3 8.5-5.6-1.8-3.2 3.4-3-.3 5.1-12.9z"/></g><g><path class="st40" d="M917.7 342.7l-6-9-8 2-10-3-6 7-2 6 9 1 24-1z"/><path class="st57" d="M903.7 335.7l3 2v-3z"/></g><path class="st40" d="M861.7 346.7l11.4-3.1-4.1-7.6-10.3-2-8 4.7-3 6zM876.3 335l-2 3.3 5.4 1.4 4.3-2-2.7-3zM875.8 347.7l-8.1 3.5 8.1 3.5 3.2-1.8 1.7-3.5zM899.7 355.7l8-5 10 1 8 8v5h-20.3zM924.7 350.7l7-3 6 1 2 6-7 2zM995.7 339.7l5-7h8l6 7-7 2z"/><path class="st45" d="M167 285l3-6 4.7.3 6.6-4.3 10 .3 3.7 5.4 14-3.4 10.3 4 6.4 13-49.4-.3z"/><path class="st8" d="M1122 123l2-3h3v5z"/><g><path id="SVGID_19_" class="st6" d="M1053.8 72.8l.2 22.2 16 23 33 6 35.9-8-19.9-19-33-4-12-11-5-17-11 2z"/><defs><path id="SVGID_160_" d="M1053.8 72.8l.2 22.2 16 23 33 6 35.9-8-19.9-19-33-4-12-11-5-17-11 2z"/></defs><clipPath id="SVGID_161_"><use xlink:href="#SVGID_160_" overflow="visible"/></clipPath><path clip-path="url(#SVGID_161_)" fill="#ff6654" d="M1074 72l-9 3v10l8 4 6-7z"/><defs><path id="SVGID_162_" d="M1053.8 72.8l.2 22.2 16 23 33 6 35.9-8-19.9-19-33-4-12-11-5-17-11 2z"/></defs><clipPath id="SVGID_163_"><use xlink:href="#SVGID_162_" overflow="visible"/></clipPath><path clip-path="url(#SVGID_163_)" fill="#ff6654" d="M1079 101l2-4h10l2 5-8 3z"/><defs><path id="SVGID_164_" d="M1053.8 72.8l.2 22.2 16 23 33 6 35.9-8-19.9-19-33-4-12-11-5-17-11 2z"/></defs><clipPath id="SVGID_165_"><use xlink:href="#SVGID_164_" overflow="visible"/></clipPath><path clip-path="url(#SVGID_165_)" fill="#ff6654" d="M1093 91l3 9 7 2 4-1V91z"/><defs><path id="SVGID_166_" d="M1053.8 72.8l.2 22.2 16 23 33 6 35.9-8-19.9-19-33-4-12-11-5-17-11 2z"/></defs><clipPath id="SVGID_167_"><use xlink:href="#SVGID_166_" overflow="visible"/></clipPath><path clip-path="url(#SVGID_167_)" fill="#ff6654" d="M1079 85l-3 7 4 2 6-1 2-5z"/><g><defs><path id="SVGID_168_" d="M1053.8 72.8l.2 22.2 16 23 33 6 35.9-8-19.9-19-33-4-12-11-5-17-11 2z"/></defs><clipPath id="SVGID_169_"><use xlink:href="#SVGID_168_" overflow="visible"/></clipPath><path clip-path="url(#SVGID_169_)" fill="#ff6654" d="M1068 97l2-5 5 2 1 5-4 2z"/></g><g><defs><path id="SVGID_170_" d="M1053.8 72.8l.2 22.2 16 23 33 6 35.9-8-19.9-19-33-4-12-11-5-17-11 2z"/></defs><clipPath id="SVGID_171_"><use xlink:href="#SVGID_170_" overflow="visible"/></clipPath><path clip-path="url(#SVGID_171_)" fill="#ff6654" d="M1062 86l3 4-5 4-3-4v-4z"/></g><g><defs><path id="SVGID_172_" d="M1053.8 72.8l.2 22.2 16 23 33 6 35.9-8-19.9-19-33-4-12-11-5-17-11 2z"/></defs><clipPath id="SVGID_173_"><use xlink:href="#SVGID_172_" overflow="visible"/></clipPath><path clip-path="url(#SVGID_173_)" fill="#ff6654" d="M1063 95l3-1v3z"/></g><g><defs><path id="SVGID_174_" d="M1053.8 72.8l.2 22.2 16 23 33 6 35.9-8-19.9-19-33-4-12-11-5-17-11 2z"/></defs><clipPath id="SVGID_175_"><use xlink:href="#SVGID_174_" overflow="visible"/></clipPath><path clip-path="url(#SVGID_175_)" fill="#ff6654" d="M1053 75l6 1 3 6-2 2-9-2z"/></g><g><defs><path id="SVGID_176_" d="M1053.8 72.8l.2 22.2 16 23 33 6 35.9-8-19.9-19-33-4-12-11-5-17-11 2z"/></defs><clipPath id="SVGID_177_"><use xlink:href="#SVGID_176_" overflow="visible"/></clipPath><path clip-path="url(#SVGID_177_)" fill="#ff6654" d="M1101 109l6-5 6 1 3 6-5 4-7-2z"/></g><g><defs><path id="SVGID_178_" d="M1053.8 72.8l.2 22.2 16 23 33 6 35.9-8-19.9-19-33-4-12-11-5-17-11 2z"/></defs><clipPath id="SVGID_179_"><use xlink:href="#SVGID_178_" overflow="visible"/></clipPath><path clip-path="url(#SVGID_179_)" fill="#ff6654" d="M1091 107l5-4 4 2-4 4z"/></g><g><defs><path id="SVGID_180_" d="M1053.8 72.8l.2 22.2 16 23 33 6 35.9-8-19.9-19-33-4-12-11-5-17-11 2z"/></defs><clipPath id="SVGID_181_"><use xlink:href="#SVGID_180_" overflow="visible"/></clipPath><path clip-path="url(#SVGID_181_)" fill="#ff6654" d="M1112 93l1 7 5 4 8-1 1-6-9-5z"/></g><g><defs><path id="SVGID_182_" d="M1053.8 72.8l.2 22.2 16 23 33 6 35.9-8-19.9-19-33-4-12-11-5-17-11 2z"/></defs><clipPath id="SVGID_183_"><use xlink:href="#SVGID_182_" overflow="visible"/></clipPath><path clip-path="url(#SVGID_183_)" fill="#ff6654" d="M1119 115l1-7 11-3 3 7-2 5z"/></g></g><path class="st9" d="M1054 95l19 11 45.1 14.2-10.1 9.8-38-12z"/><path transform="rotate(-31.777 1022.625 61.934)" class="st42" d="M1014.1 61.5h17.1v.9h-17.1z"/><g><path id="SVGID_21_" class="st6" d="M1053.8 72.8l-5.3-9.9-11-2.6-13.1 6.6-4 .4 9.1-10.7 12.3-6.6 14.7 1.9L1069 65l-6.2 12.4z"/><defs><path id="SVGID_184_" d="M1053.8 72.8l-5.3-9.9-11-2.6-13.1 6.6-4 .4 9.1-10.7 12.3-6.6 14.7 1.9L1069 65l-6.2 12.4z"/></defs><clipPath id="SVGID_185_"><use xlink:href="#SVGID_184_" overflow="visible"/></clipPath><g clip-path="url(#SVGID_185_)"><path class="st8" d="M1017.7 66.7l5.4 1.9 3.1-5.8-4-6.4-5.5 2.3zM1025.9 52.4l-.3 3.9 2.7 3.8 5.4-1.1 1.8-5.4-5.1-2.7zM1042.5 53.8l-3.2 1.2-2.3-2.5 1.6-2.6 4.8.2zM1042.1 62.6l-.1-3.8 4.5-1.6 2.3 3-1.1 4.2zM1047.5 49.3l-.9 5.7 4.7-1 4.7 4.7 3.7-5.7-2.9-5.6zM1049.2 75.6c-.4-1.1-1.5-9.2-1.5-9.2l2.1-3.7 6.4.3 3.5 7.2-10.5 5.4zM1061 55l-3 6 5 5 8-2z"/></g></g><path class="st42" d="M1015.1 66.1h17.1V68h-17.1z"/><path class="st8" d="M1061 73l1-4 5-1 1 3-4 3z"/><path class="st1" d="M1030 37l-3-3 1-8 5-3 6 6-4 10zM1040 25l1-4 4-1 3 5-4 3zM1033.5 17l-1.5-3.8 3.8-2.2 2.2 2.2-.8 3z"/><path class="st44" d="M1485 292l-13 16-20 9 26-3 15-17z"/><g><path class="st3" d="M1069.3 150.7l-2.9 1-1.3 3.3.6 2.7 3.4 1.6 4.2-.6 1.5-2.5-1.2-4.2z"/><path class="st3" d="M1064.2 158.4l-5.7 2.8-.5 3.5 4.2 4 1.2 3.1 1-2.2.1-1.5-2.8-3.9 3.1-1.3 2.7-5.1zM1073.5 159.5l5.6 4.1.5 3.6-6 3.2-.6-1.4 3.1-3.4-3.4-2.4-1-4.5z"/><path class="st3" d="M1064.1 160.7l.2 8.8 8.8-.6.6-9.1-7-2.1z"/><path class="st3" d="M1064.3 168.7l-.9 3.1-1.4 9.5.2 8.7 3.5.3 1-7.9 1.9-4.7.2 4.8 2.2 7.3 3.2-.6-.6-8 .8-7.9-1.3-4.4z"/><path class="st42" d="M1063.7 169.3l3.3 1.4 6.3-1.1.1 1.3-6.7.9-3.6-1.2z"/><path class="st1" d="M1063 165.7l-2.2 2.2 1.4 1.5.2 1.9.9 1 1.4-2.4-.3-2zM1073.1 168.2l1.4-1 1.6 2.4-1.9.6.7 1.3-.5 1.3-1.6-2.7z"/><path class="st42" d="M1065.6 157l3.1 1.8 4.7-.2.1.9-5.1.6-3.2-1.9z"/><path class="st1" d="M1061.9 189.2l.1 2.3-1.7.5-.4.7h5.9l.4-3.8zM1070.2 188.7l.6 2.8-1.6.6-.5.6 2.5.2 3.8-.8-.9-4.1z"/></g></g></svg>